<svg xmlns="http://www.w3.org/2000/svg" viewBox="0 0 366 366" width="50px" height="50px">
                <g>
                  <path d="M357.39,183.68c-0.86,97.21-78.24,174-174.19,174.14C86.4,357.96,8.14,279.98,8.62,181.95C9.08,85.49,86.76,8,183.2,8.18
                  C280.37,8.36,357.33,86.72,357.39,183.68z M15.04,183.11c-0.38,91.59,74.31,168.45,168.21,168.35
                  c93.64-0.09,167.86-77.17,167.72-168.57c-0.13-92.98-75.46-168.33-167.92-168.35C89.3,14.52,14.61,91.32,15.04,183.11z"></path>
                  <path d="M247.52,101.86c-0.23,0.44-0.41,0.91-0.68,1.32c-9.68,14.24-19.38,28.47-29.07,42.71c-0.23,0.34-0.44,0.68-0.66,1.03
                  c-0.92,1.51-0.85,1.91,0.5,2.79c0.94,0.62,1.65,0.41,2.53-0.82c5.64-7.86,11.27-15.73,16.89-23.6c4.41-6.18,8.81-12.36,13.24-18.53
                  c0.5-0.7,1.19-1.25,1.8-1.87c0.14,0.09,0.28,0.19,0.42,0.28c-0.25,0.54-0.43,1.13-0.76,1.62c-3.84,5.68-7.69,11.35-11.56,17.01
                  c-6.08,8.89-12.18,17.77-18.27,26.67c-0.83,1.22-0.73,1.7,0.41,2.53c1.05,0.76,1.72,0.68,2.57-0.5
                  c5.45-7.64,10.87-15.31,16.3-22.97c4.55-6.43,9.1-12.86,13.65-19.29c0.2-0.28,0.42-0.53,0.75-0.93c0.51,1.2,0.23,2.09-0.27,2.95
                  c-2.59,4.44-5.12,8.92-7.78,13.32c-5.35,8.87-10.75,17.72-16.19,26.54c-1.37,2.22-2.95,4.31-4.4,6.48
                  c-2.9,4.33-6.95,6.38-12.14,6.22c-1.38-0.04-2.77-0.06-4.16,0.02c-0.46,0.03-1.06,0.28-1.31,0.63c-4,5.57-7.96,11.16-11.93,16.76
                  c-3.73,5.26-7.45,10.53-11.19,15.78c-0.48,0.67-0.65,1.2-0.09,1.95c7.43,9.83,14.79,19.72,22.26,29.52
                  c4.46,5.86,10.17,10.45,15.71,15.22c3.61,3.11,7.09,6.38,10.56,9.66c0.91,0.85,1.61,1.95,2.29,3.01c1.05,1.63,1.55,3.45,1.06,5.38
                  c-0.67,2.6-1.36,5.2-2.2,7.75c-0.69,2.11-2.29,3.14-4.51,3.02c-2.56-0.14-5.12-0.3-7.66-0.61c-2.77-0.34-4.74-2.08-5.93-4.46
                  c-1.71-3.42-3.27-6.93-4.67-10.49c-3.3-8.42-5.91-17.13-10.79-24.87c-3.9-6.18-7.72-12.4-11.66-18.55
                  c-2.46-3.85-5.08-7.59-7.7-11.48c-0.31,0.33-0.53,0.5-0.68,0.72c-6.02,9.28-12.03,18.55-18.04,27.84
                  c-4.55,7.04-7.52,14.81-10.36,22.65c-1.35,3.72-2.89,7.36-4.37,11.03c-0.32,0.79-0.78,1.53-1.15,2.3
                  c-1.98,4.08-5.33,5.89-9.75,5.93c-1.75,0.02-3.5,0.08-5.24,0.08c-1.72,0-2.88-0.94-3.43-2.48c-0.77-2.14-1.31-4.36-2.03-6.52
                  c-1.13-3.38-0.29-6.38,2.05-8.83c2.95-3.1,6.08-6.03,9.24-8.91c4.34-3.96,9.2-7.43,13.08-11.78c6.16-6.9,11.77-14.3,17.46-21.6
                  c3.39-4.34,6.48-8.91,9.74-13.35c0.56-0.76,0.55-1.32,0.02-2.07c-7.77-10.9-15.51-21.83-23.29-32.72c-0.22-0.3-0.83-0.6-1.14-0.51
                  c-3.65,1.1-7.21,0.47-10.69-0.65c-7.19-2.33-13.03-6.7-17.77-12.49c-8.47-10.35-13.07-22.31-14.04-35.63
                  c-0.19-2.6,0.11-5.34,0.75-7.87c1.12-4.45,4.27-6.39,8.77-5.47c2.76,0.56,5.57,1.36,8.09,2.6c11.87,5.81,21.38,14.29,27.83,25.95
                  c2.91,5.26,4.73,10.93,5.05,16.99c0.23,4.31-0.34,8.5-2.64,12.26c-0.55,0.89-0.46,1.5,0.09,2.3c6.43,9.35,12.84,18.71,19.26,28.07
                  c0.98,1.43,1.99,2.85,3.1,4.43c2.1-3.01,4.08-5.8,6.01-8.62c5.15-7.5,10.25-15.04,15.45-22.51c1.08-1.55,1.39-2.91,0.61-4.73
                  c-0.86-2.01-1.44-4.16-1.9-6.3c-0.52-2.39-0.19-4.8,1.16-6.85c2.55-3.88,5.09-7.8,7.97-11.44c8.26-10.43,16.69-20.73,25.06-31.07
                  c0.92-1.14,1.9-2.25,2.91-3.31c0.34-0.35,0.87-0.51,1.32-0.76c0.09,0.1,0.18,0.21,0.26,0.31c-0.18,0.34-0.33,0.7-0.54,1.02
                  c-4.43,6.46-8.86,12.93-13.31,19.38c-4.91,7.12-9.85,14.22-14.78,21.33c-0.44,0.64-0.79,1.34-1.27,1.95
                  c-0.91,1.18-0.01,1.71,0.73,2.37c0.86,0.77,1.53,0.52,2.14-0.3c1.21-1.64,2.41-3.29,3.6-4.95c8.7-12.14,17.4-24.29,26.1-36.43
                  c0.55-0.76,1.04-1.57,1.65-2.28c0.27-0.31,0.76-0.43,1.14-0.64C247.27,101.59,247.4,101.72,247.52,101.86z"></path>
                  <path d="M127.33,53.57c0.38,1.12,0.72,2.1,1.04,3.09c2.14,6.76,4.27,13.53,6.43,20.28c0.22,0.67,0.19,1.08-0.54,1.32
                  c-0.81,0.26-1.06-0.14-1.28-0.85c-2.73-8.84-5.48-17.68-8.24-26.52c-0.53-1.71-1.14-3.4-1.64-5.12c-0.11-0.38,0.08-0.84,0.13-1.27
                  c0.5,0.11,1.16,0.07,1.46,0.38c0.61,0.64,1.03,1.46,1.53,2.21c4.71,7.11,9.42,14.22,14.14,21.32c0.44,0.66,0.94,1.28,1.41,1.92
                  c0.11-0.03,0.22-0.07,0.33-0.1c0.04-0.33,0.11-0.65,0.1-0.98c-0.03-0.94-0.13-1.87-0.15-2.81c-0.15-7.35-0.28-14.7-0.44-22.05
                  c-0.03-1.47-0.16-2.94-0.24-4.41c-0.03-0.61-0.18-1.29,0.66-1.48c0.89-0.21,0.97,0.51,1.15,1.08c2.42,7.66,4.84,15.31,7.26,22.97
                  c0.89,2.8,1.76,5.6,2.68,8.39c0.23,0.68,0.45,1.22-0.47,1.54c-1.02,0.36-1.08-0.42-1.27-1.01c-1.79-5.64-3.57-11.27-5.34-16.92
                  c-0.62-1.98-1.16-3.99-1.79-5.97c-0.1-0.3-0.5-0.51-0.76-0.76c-0.11,0.32-0.32,0.64-0.31,0.96c0.19,5.06,0.44,10.12,0.62,15.17
                  c0.11,3.1,0.15,6.2,0.13,9.3c0,0.7-0.19,1.8-0.63,2c-0.96,0.45-1.18-0.74-1.56-1.31c-4.22-6.31-8.39-12.64-12.6-18.96
                  C128.76,54.41,128.72,53.4,127.33,53.57z"></path>
                  <path d="M169.48,62.25c-0.34-2.45-0.7-4.91-1.03-7.37c-0.86-6.52-1.7-13.03-2.51-19.55c-0.04-0.31,0.35-0.68,0.53-1.01
                  c0.36,0.29,0.97,0.54,1.03,0.88c0.63,4.11,1.19,8.24,1.76,12.36c0.62,4.49,1.25,8.97,1.85,13.46c0.32,2.43,0.61,4.86,0.86,7.3
                  c0.04,0.36-0.26,0.75-0.4,1.13c-0.43-0.21-1.06-0.3-1.27-0.65c-1.7-2.83-3.33-5.7-4.95-8.59c-3.15-5.62-6.26-11.26-9.4-16.88
                  c-0.11-0.2-0.27-0.38-0.74-0.56c-0.04,0.46-0.16,0.94-0.1,1.39c1.02,7.6,2.07,15.2,3.12,22.81c0.14,1.05,0.31,2.1,0.47,3.15
                  c0.1,0.66-0.1,1.1-0.84,1.21c-0.82,0.13-0.98-0.36-1.06-0.99c-0.82-6.4-1.62-12.8-2.46-19.2c-0.59-4.53-1.22-9.06-1.84-13.59
                  c-0.04-0.28-0.1-0.57-0.1-0.85c0.01-0.86,0.45-1.12,1.17-0.62c0.41,0.29,0.75,0.74,1.01,1.19c4.31,7.63,8.6,15.28,12.92,22.91
                  c0.46,0.81,1.03,1.54,1.55,2.31C169.2,62.42,169.34,62.33,169.48,62.25z"></path>
                  <path d="M233.54,79.47c2.95-5.72,5.7-11.09,8.46-16.44c2.49-4.82,4.98-9.63,7.51-14.42c0.14-0.27,0.82-0.53,1.07-0.41
                  c1.86,0.9,3.71,1.86,5.51,2.88c3.62,2.05,4.32,5.23,3.13,9.44c-0.56,1.97-1.7,3.78-2.65,5.63c-2.03,3.95-4.09,7.89-6.18,11.8
                  c-0.52,0.96-1.2,1.84-1.87,2.71c-1.8,2.34-4.32,3.12-6.97,2.31C238.83,82.13,236.3,80.7,233.54,79.47z M236.11,78.43
                  c1.31,0.73,2.65,1.56,4.06,2.23c3.16,1.51,5.06,1.06,7.28-1.66c0.49-0.6,0.93-1.25,1.3-1.92c1.18-2.19,2.36-4.38,3.47-6.6
                  c1.83-3.64,3.75-7.24,5.39-10.97c1.16-2.64,0.43-4.75-1.91-6.43c-1.22-0.87-2.6-1.51-3.89-2.27c-0.75-0.44-1.3-0.29-1.68,0.5
                  c-0.16,0.33-0.38,0.63-0.54,0.96C245.14,60.89,240.7,69.51,236.11,78.43z"></path>
                  <path d="M111.68,51.29c2.57-0.19,4.27,1.56,5.6,3.61c1.41,2.18,2.55,4.54,3.77,6.84c1.76,3.31,3.58,6.59,5.19,9.98
                  c0.74,1.55,1.24,3.28,1.5,4.99c0.53,3.44-1.5,6.27-4.8,7.44c-4.45,1.57-7.51-0.72-9.17-3.69c-2.45-4.37-4.75-8.83-7.07-13.27
                  c-0.85-1.62-1.62-3.29-2.35-4.97c-0.32-0.74-0.54-1.55-0.63-2.35C103.16,54.84,106.37,51.3,111.68,51.29z M119.88,82.91
                  c4.35-0.01,7.1-3.78,5.85-7.49c-0.25-0.73-0.55-1.45-0.89-2.14c-1.84-3.68-3.65-7.38-5.57-11.02c-1.27-2.41-2.48-4.9-4.1-7.07
                  c-2.56-3.42-8-2.46-9.47,1.57c-0.33,0.9-0.36,2.01-0.18,2.96c0.22,1.14,0.73,2.25,1.26,3.3c1.95,3.9,3.91,7.8,5.96,11.64
                  c1.15,2.15,2.4,4.25,3.79,6.25C117.37,82.14,118.69,82.87,119.88,82.91z"></path>
                  <path d="M217.91,69.09c0.34-1.7,0.46-3.07,0.89-4.32c2.04-5.97,4.16-11.92,6.26-17.87c0.07-0.19,0.15-0.38,0.23-0.57
                  c2.54-6.19,8.56-5.67,12.14-2.74c1.69,1.38,2.24,3.23,2.16,5.34c-0.1,2.7-1.07,5.17-1.96,7.67c-1.6,4.49-3.15,9-4.73,13.49
                  c-0.23,0.65-0.51,1.29-0.83,1.9c-2.62,4.93-9.23,5.57-12.6,1.09C218.59,71.92,218.35,70.27,217.91,69.09z M238.1,49.05
                  c-0.1-0.03-0.2-0.06-0.3-0.1c0.06-1.89-0.58-3.47-2.25-4.45c-1.88-1.11-3.85-1.81-5.97-0.55c-1.44,0.86-2.31,2.2-2.86,3.7
                  c-1.67,4.55-3.3,9.11-4.87,13.69c-0.72,2.11-1.44,4.26-1.84,6.45c-0.54,2.93,0.86,5.05,3.59,6.02c2.74,0.97,5.1,0.16,6.6-2.37
                  c0.66-1.11,1.19-2.32,1.63-3.54c1.34-3.71,2.63-7.45,3.88-11.19C236.56,54.17,237.31,51.6,238.1,49.05z"></path>
                  <path d="M217.49,45c-0.28,1.66-0.74,4.52-1.27,7.36c-0.78,4.17-1.55,8.34-2.47,12.48c-0.51,2.31-1.53,4.43-3.81,5.57
                  c-4.97,2.49-10.65-0.8-10.77-6.35c-0.05-2.14,0.34-4.3,0.71-6.43c0.83-4.78,1.71-9.55,2.68-14.31c0.29-1.42,0.79-2.85,1.48-4.11
                  c1.5-2.74,4.35-3.87,7.39-3.15C215.77,37.08,217.58,39.38,217.49,45z M215.95,43.69c-0.14-1.41-0.27-2.71-1.22-3.83
                  c-2.72-3.2-7.54-2.72-9.46,1.01c-0.46,0.89-0.81,1.88-1,2.87c-0.7,3.56-1.31,7.13-1.97,10.7c-0.51,2.72-1.15,5.43-1.55,8.16
                  c-0.45,3.05,1.29,5.72,4.01,6.46c3.16,0.87,5.65-0.39,6.95-3.56c0.28-0.67,0.47-1.39,0.61-2.11c0.64-3.32,1.25-6.65,1.86-9.97
                  C214.77,50.18,215.36,46.93,215.95,43.69z"></path>
                  <path d="M129.95,322.79c4.95-6.45,9.72-12.65,14.48-18.86c0.19,0.06,0.37,0.12,0.56,0.18c0.02,0.53,0.21,1.13,0.04,1.59
                  c-2.92,7.61-5.89,15.21-8.84,22.81c-0.32,0.82-0.8,1.09-1.8,0.46c2.2-5.68,4.41-11.42,6.63-17.15c-0.12-0.07-0.23-0.15-0.35-0.22
                  c-0.34,0.34-0.73,0.65-1.02,1.03c-3.26,4.29-6.5,8.59-9.77,12.87c-0.38,0.49-0.89,0.89-1.62,1.61c-0.12-0.86-0.29-1.36-0.24-1.83
                  c0.56-5.69,1.15-11.37,1.72-17.06c0.04-0.42,0.01-0.84,0.01-1.26c-0.15-0.05-0.29-0.1-0.44-0.15c-0.3,0.51-0.69,0.98-0.9,1.52
                  c-1.81,4.68-3.58,9.37-5.37,14.06c-0.12,0.31-0.16,0.68-0.37,0.9c-0.34,0.37-0.79,0.65-1.19,0.98c-0.06-0.52-0.3-1.11-0.14-1.55
                  c1.36-3.63,2.79-7.22,4.2-10.83c1.51-3.87,3.01-7.75,4.56-11.61c0.22-0.54,0.72-0.97,1.09-1.44c0.13,0.58,0.41,1.17,0.37,1.73
                  c-0.45,5.86-0.95,11.72-1.45,17.58c-0.1,1.18-0.32,2.34-0.45,3.52C129.63,321.91,129.78,322.18,129.95,322.79z"></path>
                  <path d="M102.79,280.09c-2.88,7.25-5.74,14.44-8.6,21.62c0.07,0.1,0.14,0.19,0.22,0.29c0.58-0.28,1.21-0.48,1.72-0.85
                  c4.8-3.51,9.58-7.05,14.38-10.58c0.75-0.56,1.5-1.13,2.31-1.6c0.27-0.16,0.7-0.03,1.06-0.03c-0.02,0.36,0.1,0.83-0.07,1.06
                  c-3.97,5.18-7.98,10.33-11.97,15.49c-1.02,1.32-2.04,2.65-3.07,3.97c-0.36,0.47-0.83,0.99-1.37,0.37
                  c-0.18-0.21-0.01-0.96,0.24-1.29c3.21-4.17,6.47-8.3,9.71-12.45c0.31-0.4,0.56-0.84,0.84-1.25c-0.08-0.1-0.16-0.19-0.24-0.29
                  c-0.62,0.33-1.28,0.59-1.84,1c-4.33,3.19-8.63,6.42-12.96,9.62c-0.43,0.32-1,0.44-1.51,0.66c-0.12-0.12-0.24-0.23-0.36-0.35
                  c2.4-6.09,4.8-12.19,7.2-18.28c-0.11-0.07-0.23-0.14-0.34-0.21c-0.32,0.27-0.71,0.49-0.96,0.81c-3.31,4.3-6.6,8.61-9.9,12.91
                  c-0.31,0.41-0.53,1.15-1.29,0.49c-0.69-0.6-0.28-1.03,0.12-1.54c4.83-6.17,9.64-12.35,14.46-18.52
                  C101.06,280.5,101.45,279.61,102.79,280.09z"></path>
                  <path d="M183.06,33.39c3.29,0.15,6.42,0.29,9.55,0.42c0.73,0.03,1.47,0.07,2.2,0.03c0.73-0.04,1.07,0.29,1.07,0.98
                  c0.01,0.69-0.31,1.04-1.05,0.99c-2.76-0.19-5.52-0.38-8.29-0.53c-2-0.11-1.95-0.09-2.01,1.96c-0.11,3.63-0.31,7.26-0.43,10.9
                  c-0.06,1.97,0.01,2.08,1.99,2.18c2.56,0.13,5.13,0.18,7.69,0.18c0.89,0,1.16,0.39,1.16,1.16c0,0.81-0.54,0.89-1.17,0.86
                  c-3.21-0.18-6.42-0.35-9.75-0.54c-0.15,1.93-0.34,3.82-0.45,5.71c-0.2,3.38-0.34,6.77-0.56,10.15c-0.02,0.38-0.35,0.99-0.62,1.04
                  c-0.78,0.15-0.92-0.5-0.9-1.11c0.16-4.28,0.32-8.57,0.52-12.85c0.22-4.77,0.47-9.54,0.7-14.31
                  C182.84,38.27,182.94,35.92,183.06,33.39z"></path>
                  <path d="M213.76,306.6c2.5-1.04,4.92-2.27,7.71-1.89c1.72,0.23,3.07,1.22,3.7,2.86c1.01,2.62,1.88,5.29,2.78,7.96
                  c0.64,1.89,1.36,3.77,1.78,5.72c0.37,1.73,0.56,3.55,0.49,5.31c-0.07,1.82-1.48,2.87-3.02,3.54c-1.33,0.58-2.79,0.88-4.15,1.41
                  c-0.98,0.38-1.39,0.05-1.68-0.88c-1.78-5.68-3.6-11.35-5.4-17.02C215.26,311.34,214.55,309.09,213.76,306.6z M215.49,307.37
                  c1.57,4.95,3.02,9.53,4.46,14.11c0.75,2.37,1.44,4.75,2.25,7.1c0.18,0.51,0.92,1.32,1.16,1.24c1.49-0.49,3.05-0.98,4.31-1.86
                  c2.01-1.4,1.55-3.52,0.95-5.47c-1.22-3.97-2.5-7.92-3.83-11.85c-0.36-1.06-0.82-2.21-1.57-2.99c-0.73-0.75-1.92-1.54-2.87-1.49
                  C218.71,306.23,217.1,306.93,215.49,307.37z"></path>
                  <path d="M65.4,279.07c0.31-0.46,0.54-1.01,0.95-1.36c3.48-2.96,6.99-5.87,10.48-8.8c2.74-2.31,5.47-4.64,8.23-6.92
                  c0.21-0.17,0.86-0.16,1.01,0.03c1.09,1.26,2.14,2.56,3.13,3.91c1.55,2.11,1.57,4.48-0.02,6.57c-1.93,2.54-4.29,4.36-7.7,4.2
                  c-0.66-0.03-1.13,0.12-1.07,0.93c0.14,1.79-0.72,3.17-1.96,4.3c-1.65,1.51-3.39,2.93-5.09,4.39c-0.12,0.11-0.26,0.27-0.4,0.27
                  c-0.4,0-0.8-0.07-1.2-0.12c0.1-0.37,0.08-0.89,0.32-1.09c1.66-1.44,3.38-2.81,5.08-4.21c1.18-0.97,2.12-2.1,1.89-3.75
                  c-0.11-0.78-0.32-1.58-0.69-2.27c-0.42-0.78-1.05-1.45-1.62-2.14c-0.81-0.99-1.46-1.07-2.48-0.22c-2.11,1.74-4.17,3.52-6.29,5.25
                  c-0.67,0.55-1.45,0.97-2.18,1.45C65.67,279.35,65.54,279.21,65.4,279.07z M85.34,263.53c-2.55,2.14-4.94,4.17-7.37,6.16
                  c-0.88,0.72-1.02,1.42-0.25,2.27c0.8,0.87,1.55,1.8,2.45,2.56c0.48,0.41,1.22,0.67,1.86,0.7c2.54,0.12,6.39-2.72,7.07-5.19
                  c0.14-0.51,0.13-1.17-0.06-1.66C88.29,266.42,86.9,264.95,85.34,263.53z"></path>
                  <path d="M198.28,309.28c3.7-0.21,5.63,1.09,6.19,4.53c0.87,5.27,1.61,10.57,2.14,15.88c0.34,3.38-1.36,5.27-4.68,5.88
                  c-1.27,0.24-2.57,0.37-3.85,0.56c-0.86,0.13-1.29-0.26-1.4-1.11c-0.81-6.15-1.62-12.3-2.44-18.44c-0.25-1.9-0.54-3.8-0.8-5.69
                  c-0.12-0.9,0.15-1.34,1.17-1.34C195.89,309.56,197.19,309.37,198.28,309.28z M205.43,329.23c-0.73-4.92-1.4-9.85-2.23-14.76
                  c-0.24-1.4-0.96-2.68-2.39-3.37c-1.67-0.81-3.35-0.28-5.04-0.11c-0.79,0.08-1,0.39-0.88,1.2c0.92,6.51,1.86,13.01,2.66,19.53
                  c0.37,3.05-0.02,3.39,3.8,2.51C204.28,333.56,205.31,332.25,205.43,329.23z"></path>
                  <path d="M281.28,281.78c2.73,2.42,5.3,4.67,7.83,6.98c0.5,0.45,1.47,0.77,0.99,1.81c-0.6-0.3-1.28-0.5-1.77-0.92
                  c-5.87-5.06-11.7-10.16-17.56-15.23c-0.34-0.29-0.77-0.46-1.17-0.69c1.49-1.71,2.61-3.1,3.85-4.4c2.05-2.14,4.52-2.45,7.05-0.78
                  c2.44,1.61,4.5,3.57,4.65,6.78c0.03,0.69,0.37,0.79,0.96,0.71c1.94-0.28,3.62,0.36,5.07,1.62c1.69,1.47,3.38,2.95,5.02,4.47
                  c0.25,0.23,0.24,0.73,0.36,1.1c-0.38-0.06-0.86,0.01-1.11-0.2c-1.7-1.4-3.34-2.87-5.02-4.29c-2.48-2.09-4.46-2.01-6.77,0.29
                  C282.83,279.86,282.12,280.8,281.28,281.78z M284.31,275.44c-0.07-0.06-0.13-0.13-0.2-0.19c-0.12-0.47-0.19-0.95-0.37-1.39
                  c-0.74-1.88-2.24-3.09-3.85-4.13c-2.33-1.5-3.64-1.31-5.6,0.65c-0.55,0.55-1.08,1.11-1.59,1.68c-1.05,1.19-1.05,1.32,0.11,2.34
                  c1.62,1.42,3.27,2.82,4.89,4.23c3.14,2.73,2.22,2.57,4.87-0.38C283.3,277.45,283.74,276.39,284.31,275.44z"></path>
                  <path d="M191.39,324.42c0,2.41,0.05,4.82-0.01,7.22c-0.08,3.18-2.01,5.26-5,5.4c-3.16,0.15-5.63-1.43-5.83-4.73
                  c-0.35-5.61-0.48-11.23-0.54-16.85c-0.02-2.11,0.92-3.98,3.03-4.76c2.05-0.76,4.23-0.84,6.02,0.66c0.78,0.66,1.35,1.72,1.71,2.7
                  c0.36,0.97,0.42,2.08,0.45,3.13c0.06,2.41,0.02,4.81,0.02,7.22C191.28,324.42,191.33,324.42,191.39,324.42z M190.28,323.1
                  c-0.28-3.14-0.47-5.42-0.7-7.69c-0.13-1.29-0.74-2.32-1.85-3.02c-2.99-1.9-6.47,0.1-6.5,3.91c-0.04,4.61,0.16,9.23,0.28,13.84
                  c0.02,0.61,0.12,1.22,0.23,1.82c0.48,2.8,3.68,4.78,6.43,2.94c1.8-1.2,2.03-2.98,2.09-4.82
                  C190.35,327.47,190.28,324.86,190.28,323.1z"></path>
                  <path d="M164.82,328.07c0.45-4.88,0.8-9.15,1.24-13.41c0.31-2.98,2.28-4.92,5.03-5.07c2.94-0.17,5.33,1.6,5.84,4.59
                  c0.26,1.54,0.22,3.16,0.11,4.73c-0.25,3.78-0.59,7.56-0.95,11.34c-0.17,1.75-0.51,3.46-1.85,4.8c-1.76,1.77-3.92,1.46-5.97,1.05
                  c-1.76-0.35-2.86-1.79-3.16-3.53C164.84,330.91,164.89,329.18,164.82,328.07z M175.95,316.29c-0.08-0.66-0.07-1.37-0.27-2.01
                  c-0.6-1.93-2.68-3.37-4.45-3.16c-1.95,0.23-3.66,2.05-3.89,4.3c-0.37,3.69-0.67,7.39-0.97,11.09c-0.12,1.46-0.29,2.93-0.23,4.39
                  c0.14,2.87,2.71,4.77,5.35,3.94c1.95-0.61,2.94-2.17,3.14-4.14C175.11,325.91,175.51,321.12,175.95,316.29z"></path>
                  <path d="M108.6,313.97c0.4-1.27,0.63-2.63,1.24-3.79c2.89-5.48,5.89-10.91,8.85-16.35c0.08-0.14,0.16-0.28,0.25-0.42
                  c0.31-0.49,0.64-1.13,1.29-0.64c0.22,0.17,0.19,0.97,0,1.34c-1.28,2.46-2.64,4.88-3.97,7.31c-1.78,3.26-3.54,6.52-5.31,9.78
                  c-0.14,0.25-0.26,0.51-0.37,0.77c-0.9,2.17-0.44,3.92,1.29,4.89c2.11,1.18,4.05,0.86,5.3-1.22c2.13-3.56,4.08-7.25,6.08-10.89
                  c1.24-2.25,2.45-4.52,3.68-6.77c0.17-0.32,0.35-0.67,0.61-0.91c0.17-0.16,0.55-0.27,0.74-0.18c0.19,0.08,0.41,0.47,0.37,0.66
                  c-0.13,0.54-0.34,1.09-0.61,1.58c-2.93,5.41-5.85,10.84-8.85,16.21c-0.6,1.08-1.38,2.18-2.35,2.91c-1.69,1.25-3.61,1.03-5.44,0.13
                  C109.6,317.51,108.72,316.06,108.6,313.97z"></path>
                  <path d="M78.79,250.92c1.2,1.91,2.57,3.62,3.42,5.57c0.94,2.13,0.68,4.33-1.16,6.08c-1.84,1.75-3.84,3.09-6.52,3.17
                  c-1.62,0.05-2.86-0.54-3.86-1.72c-0.68-0.81-1.28-1.69-1.87-2.57c-0.78-1.16-1.15-1.27-2.36-0.48c-2.55,1.67-5.07,3.4-7.66,5.02
                  c-0.54,0.34-1.82,0.58-1.89,0.44c-0.49-1.01,0.55-1.29,1.12-1.67c6.35-4.26,12.73-8.49,19.11-12.72
                  C77.6,251.72,78.07,251.4,78.79,250.92z M73.96,264.37c2.67,0.03,6.64-2.76,7.27-4.84c0.16-0.54,0.17-1.26-0.05-1.76
                  c-0.51-1.14-1.25-2.18-1.82-3.3c-0.58-1.14-1.44-1.14-2.32-0.57c-2.43,1.56-4.83,3.17-7.2,4.82c-0.24,0.17-0.37,0.91-0.21,1.18
                  c0.63,1.04,1.31,2.09,2.15,2.95C72.49,263.58,73.46,264.04,73.96,264.37z"></path>
                  <path d="M268.2,303.57c-0.28-0.7-0.55-1.4-0.85-2.09c-2.43-5.7-4.86-11.4-7.3-17.09c-0.33-0.78-0.39-1.48,0.27-2.12
                  c1.02,0.81,10.79,24.26,10.61,25.78c-0.54-0.28-1.06-0.44-1.46-0.76c-6.45-5.18-12.9-10.38-19.32-15.61
                  c-0.39-0.32-0.53-0.93-0.79-1.41c0.13-0.12,0.25-0.24,0.38-0.36c0.55,0.26,1.18,0.42,1.65,0.79c2.65,2.1,5.27,4.25,7.89,6.39
                  c2.4,1.96,4.77,3.96,7.18,5.91c0.42,0.34,0.95,0.56,1.42,0.84C267.99,303.76,268.09,303.67,268.2,303.57z"></path>
                  <path d="M234.97,298.28c0.08,0.33,0.29,0.69,0.21,0.98c-0.11,0.42-0.33,0.98-0.67,1.14c-1.76,0.84-3.57,1.58-5.36,2.35
                  c-1.43,0.61-1.34,0.57-0.69,1.95c1.14,2.43,2.17,4.92,3.21,7.4c0.54,1.27,0.74,1.39,1.99,0.83c1.52-0.69,3.03-1.4,4.55-2.08
                  c0.37-0.16,0.78-0.35,1.16-0.33c0.34,0.01,0.66,0.29,1,0.44c-0.19,0.26-0.33,0.65-0.59,0.77c-1.87,0.9-3.74,1.79-5.65,2.61
                  c-0.95,0.41-1.17,0.78-0.66,1.82c1.13,2.26,2.07,4.61,3.06,6.93c0.7,1.64,1.15,1.83,2.76,1.11c1.37-0.62,2.74-1.24,4.12-1.84
                  c0.37-0.16,0.78-0.29,1.18-0.28c0.31,0.01,0.62,0.24,0.93,0.37c-0.2,0.27-0.34,0.67-0.61,0.8c-1.61,0.79-3.24,1.51-4.87,2.25
                  c-0.74,0.34-1.52,0.6-2.22,1.02c-1,0.6-1.41,0.2-1.81-0.73c-3.16-7.42-6.33-14.84-9.55-22.24c-0.35-0.81-0.2-1.22,0.52-1.53
                  c2.35-1.03,4.69-2.05,7.04-3.08c0.15-0.06,0.3-0.13,0.45-0.19C234.64,298.6,234.81,298.44,234.97,298.28z"></path>
                  <path d="M291.7,264.53c-0.18-0.63-0.24-1.07-0.43-1.44c-1.38-2.73-2.8-5.44-4.18-8.17c-0.33-0.65-0.67-1.33-0.8-2.03
                  c-0.09-0.49,0.17-1.05,0.27-1.57c0.14,0,0.28,0,0.41,0c0.21,0.33,0.45,0.65,0.62,1.01c1.71,3.47,3.43,6.95,5.11,10.43
                  c0.65,1.35,1.5,2.45,2.81,3.28c2.71,1.73,5.33,3.61,7.99,5.43c0.13,0.09,0.33,0.16,0.39,0.28c0.2,0.42,0.34,0.87,0.51,1.3
                  c-0.44-0.03-0.98,0.08-1.3-0.13c-2.89-1.91-5.7-3.94-8.63-5.78c-1.02-0.64-2.28-1.1-3.47-1.24c-4.04-0.49-8.1-0.79-12.15-1.2
                  c-0.32-0.03-0.6-0.38-0.9-0.58c0.31-0.26,0.62-0.73,0.93-0.73c1.3,0,2.6,0.11,3.9,0.23C285.67,263.9,288.58,264.21,291.7,264.53z"></path>
                  <path d="M164.2,310.4c-2.69-0.48-5.32-0.96-8.05-1.45c-0.44,2.25-0.88,4.48-1.31,6.7c-0.21,1.08-0.39,2.17-0.64,3.24
                  c-0.19,0.79,0.1,1.11,0.87,1.24c2,0.32,4,0.7,6,1.06c0.2,0.04,0.43,0.06,0.58,0.18c0.26,0.21,0.46,0.49,0.68,0.74
                  c-0.28,0.17-0.58,0.5-0.84,0.48c-1.37-0.13-2.76-0.26-4.1-0.57c-3.6-0.81-3.61-0.85-4.26,2.71c-0.49,2.69-0.91,5.39-1.44,8.06
                  c-0.07,0.37-0.62,0.65-0.94,0.97c-0.14-0.39-0.47-0.82-0.41-1.17c1.18-6.58,2.41-13.15,3.61-19.72c0.26-1.4,0.57-2.81,0.69-4.22
                  c0.1-1.21,0.67-1.41,1.68-1.2c1.75,0.36,3.51,0.69,5.26,1.02c0.52,0.09,1.05,0.12,1.58,0.16
                  C164.46,308.7,164.57,308.86,164.2,310.4z"></path>
                  <path d="M176.63,69.12c-0.43-11.8-0.86-23.44-1.28-35.08c1.4-0.52,1.69-0.34,1.74,1.07c0.22,6.77,0.43,13.53,0.67,20.3
                  c0.14,3.91,0.33,7.82,0.47,11.73c0.02,0.64-0.07,1.28-0.1,1.97C177.57,69.12,177.15,69.12,176.63,69.12z"></path>
                  <path d="M237.44,297.56c0.21,0.25,0.58,0.57,0.81,0.97c2.04,3.62,4.06,7.25,6.08,10.89c1.64,2.96,3.28,5.92,4.87,8.9
                  c0.42,0.79,0.83,0.93,1.61,0.48c1.9-1.1,3.84-2.14,5.79-3.14c0.35-0.18,0.86-0.06,1.3-0.07c-0.17,0.44-0.21,1.11-0.52,1.29
                  c-2.54,1.46-5.11,2.85-7.72,4.19c-0.21,0.11-0.88-0.26-1.06-0.57c-1.95-3.44-3.84-6.91-5.74-10.38c-2.02-3.68-4.02-7.37-6.03-11.06
                  C236.39,298.25,236.58,297.55,237.44,297.56z"></path>
                  <path d="M271.07,289.96c2.34-1.67,3.88-4.13,6.29-5.54c0.14,0.11,0.27,0.22,0.41,0.33c-0.24,0.39-0.42,0.84-0.73,1.15
                  c-1.44,1.38-2.9,2.75-4.41,4.07c-0.63,0.55-0.74,0.97-0.13,1.6c2.18,2.27,4.33,4.55,6.48,6.84c0.59,0.63,1.11,0.48,1.67-0.05
                  c1.39-1.32,2.78-2.64,4.21-3.91c0.37-0.33,0.88-0.5,1.32-0.75c0.13,0.17,0.26,0.34,0.38,0.5c-2.26,2.17-4.52,4.34-6.84,6.57
                  c-5.98-6.37-11.96-12.74-18-19.16c2.4-2.25,4.72-4.41,7.03-6.57c0.15,0.12,0.31,0.25,0.46,0.37c-0.24,0.39-0.41,0.86-0.72,1.17
                  c-1.51,1.49-3.03,2.97-4.6,4.4c-0.44,0.4-0.66,0.7-0.19,1.19C266.15,284.74,268.58,287.32,271.07,289.96z"></path>
                  <path d="M82.8,297.16c-2.56-1.79-4.58-4.2-6.94-6.49c6.22-6.02,12.42-12.01,18.32-17.73c1.91,1.73,4.23,3.83,6.55,5.94
                  c-0.08,0.09-0.15,0.17-0.23,0.26c-1.34-0.54-2.11-1.8-3.12-2.74c-1.07-1-2.06-2.09-2.8-2.85c-2.77,2.6-5.48,5.11-8.12,7.68
                  c-0.16,0.16-0.01,0.91,0.23,1.16c1.41,1.47,2.89,2.87,4.34,4.31c0.33,0.33,0.63,0.7,0.78,1.23c-2.47-1.43-4.22-3.72-6.21-5.43
                  c-2.8,2.73-5.56,5.41-8.42,8.21c2.02,2.01,4.01,4,6,5.99C83.06,296.86,82.93,297.01,82.8,297.16z"></path>
                  <path d="M246.47,292.11c0.88-0.73,1.4-0.55,1.91,0.24c2.95,4.64,5.94,9.26,8.9,13.89c1.32,2.06,2.6,4.14,3.9,6.21
                  c0.15,0.24,0.38,0.49,0.4,0.75c0.03,0.39-0.09,0.8-0.15,1.2c-0.4-0.15-0.99-0.17-1.18-0.46c-4.2-6.6-8.35-13.23-12.51-19.85
                  C247.33,293.45,246.91,292.81,246.47,292.11z"></path>
                  <path d="M103.12,314.08c-0.28-0.64-0.51-0.93-0.51-1.23c0-0.3,0.2-0.62,0.37-0.89c4.23-6.63,8.47-13.25,12.71-19.87
                  c0.24-0.37,0.5-0.76,0.84-1.04c0.2-0.17,0.57-0.15,0.86-0.22c0.07,0.33,0.21,0.66,0.2,0.99c-0.01,0.21-0.22,0.43-0.35,0.63
                  c-4.17,6.57-8.33,13.14-12.52,19.7C104.34,312.75,103.82,313.25,103.12,314.08z"></path>
                  <path d="M191.78,270.72c0-1.39-0.04-2.78,0.02-4.16c0.03-0.55,0.21-1.13,0.48-1.61c0.53-0.96,1.41-1.62,2.5-1.39
                  c1.03,0.22,1.89,0.98,1.93,2.12c0.11,3.33,0.21,6.67,0.09,10.01c-0.05,1.53-1.38,2.57-2.55,2.49c-1.19-0.08-2.39-1.35-2.47-2.8
                  c-0.08-1.55-0.02-3.1-0.02-4.65C191.77,270.72,191.78,270.72,191.78,270.72z M192.59,270.82c0.03,0,0.06,0,0.08,0
                  c0,1.47-0.02,2.94,0.01,4.41c0.01,1.07,0.52,1.87,1.62,1.94c1.14,0.07,1.8-0.82,1.83-1.78c0.09-3.09,0.06-6.19-0.06-9.28
                  c-0.03-0.88-0.69-1.63-1.7-1.62c-1.02,0.02-1.44,0.81-1.66,1.68c-0.09,0.35-0.1,0.73-0.1,1.09
                  C192.59,268.45,192.59,269.63,192.59,270.82z"></path>
                  <path d="M168.86,267.86c-0.09-0.46-0.23-0.91-0.26-1.37c-0.09-1.19-0.87-1.71-1.89-1.95c-0.98-0.23-1.62,0.39-2.12,1.13
                  c-0.89,1.3-0.6,3.11,0.68,4.02c0.83,0.59,1.77,1,2.61,1.57c2.28,1.57,2.09,5-0.16,6.49c-1.75,1.15-3.93-0.42-4.29-2.46
                  c-0.08-0.46-0.01-0.95-0.01-1.42c0.1-0.03,0.2-0.06,0.3-0.09c0.13,0.28,0.33,0.54,0.39,0.83c0.3,1.51,0.99,2.44,2.04,2.55
                  c1.13,0.12,1.86-0.57,2.33-1.47c0.57-1.09,0.2-2.62-0.8-3.43c-0.49-0.4-1.08-0.71-1.67-0.97c-2.55-1.15-3.47-4.04-1.93-6.33
                  c0.63-0.94,1.48-1.67,2.75-1.43c1.3,0.25,2.42,1.43,2.52,2.67c0.05,0.55-0.05,1.11-0.08,1.66
                  C169.13,267.86,169,267.86,168.86,267.86z"></path>
                  <path d="M157.66,271.3c0,1.77-0.05,3.43,0.05,5.09c0.02,0.27,0.62,0.7,0.99,0.73c1.12,0.1,2.26,0.04,3.39,0.04
                  c0.05,0.16,0.1,0.31,0.15,0.47c-0.39,0.19-0.76,0.5-1.16,0.53c-0.97,0.08-1.96-0.01-2.93,0.04c-0.84,0.04-1.24-0.34-1.24-1.13
                  c0-4.16,0.02-8.32,0.03-12.47c0-0.79,0.34-1.18,1.19-1.13c1.1,0.07,2.2,0,3.3,0.07c0.24,0.01,0.47,0.32,0.71,0.49
                  c-0.24,0.16-0.47,0.43-0.72,0.45c-0.93,0.06-1.87,0.05-2.81,0.03c-0.67-0.01-0.98,0.28-0.98,0.94c0,1.31,0.01,2.61-0.01,3.92
                  c-0.01,0.73,0.33,1.01,1.05,0.99c0.94-0.03,1.87-0.03,2.81,0.02c0.25,0.01,0.48,0.27,0.72,0.42c-0.23,0.17-0.45,0.48-0.69,0.49
                  C160.29,271.32,159.07,271.3,157.66,271.3z"></path>
                  <path d="M207.76,263.65c0,4.74,0,9.48,0,14.23c-0.1,0.04-0.2,0.08-0.31,0.12c-0.14-0.48-0.41-0.97-0.38-1.44
                  c0.15-2.77-0.16-3.09-2.94-3c-0.6,0.02-1.21-0.11-1.82-0.18c0.22-0.64,0.37-1.31,0.68-1.9c1.14-2.2,2.33-4.38,3.52-6.56
                  c0.26-0.48,0.56-0.93,0.84-1.39C207.48,263.57,207.62,263.61,207.76,263.65z M206.88,266.75c-0.11-0.02-0.22-0.03-0.33-0.05
                  c-0.97,1.75-1.97,3.49-2.89,5.28c-0.09,0.17,0.32,0.85,0.51,0.86c2.74,0.07,3.04,0.71,2.96-2.3c-0.02-0.77,0.05-1.55,0.01-2.32
                  C207.13,267.72,206.98,267.24,206.88,266.75z"></path>
                  <path d="M184.74,267.5c0.33-0.99,0.46-2.11,1.05-2.92c0.42-0.57,1.48-1.05,2.17-0.95c1.02,0.15,1.86,0.91,2.1,2.11
                  c0.51,2.55-0.36,4.6-2.08,6.45c-0.76,0.82-1.47,1.76-1.93,2.78c-0.69,1.52-0.17,2.19,1.45,2.22c0.81,0.02,1.63,0.02,2.44,0.04
                  c0.07,0,0.13,0.08,0.49,0.31c-0.51,0.27-0.85,0.58-1.22,0.61c-0.93,0.08-1.87,0.04-2.81,0.02c-1.18-0.02-1.57-0.51-1.44-1.71
                  c0.22-2.03,1.08-3.74,2.53-5.15c1.05-1.02,1.88-2.16,2.02-3.66c0.05-0.55,0-1.15-0.18-1.67c-0.3-0.83-0.82-1.55-1.84-1.52
                  c-0.98,0.04-1.33,0.81-1.62,1.59c-0.2,0.54-0.4,1.07-0.6,1.61C185.09,267.62,184.91,267.56,184.74,267.5z"></path>
                  <path d="M170.37,264c0.37-0.18,0.74-0.49,1.12-0.51c5.09-0.27,5.82-0.15,6.22,1.07c-0.87,0-1.67-0.02-2.46,0.01
                  c-0.69,0.02-0.99,0.19-0.97,1.1c0.11,3.87,0.05,7.75,0.04,11.63c0,0.15-0.07,0.31-0.35,0.54c-0.08-0.27-0.23-0.54-0.23-0.81
                  c0.01-3.59,0.02-7.18,0.07-10.77c0.02-1.67-0.08-1.81-1.77-1.78c-0.51,0.01-1.02,0-1.53,0C170.46,264.32,170.42,264.16,170.37,264z
                  "></path>
                  <path d="M200.3,265.64c-0.7,0.63-1.12,1.01-1.6,1.45c-0.28-1.08,0.8-2.64,2.37-3.49c0.09,1.12,0.22,2.18,0.25,3.23
                  c0.09,3.22,0.14,6.44,0.21,9.66c0,0.2,0.06,0.45-0.04,0.6c-0.17,0.27-0.42,0.47-0.64,0.7c-0.13-0.25-0.37-0.51-0.36-0.76
                  c0.01-3.01,0.08-6.03,0.09-9.04C200.57,267.28,200.41,266.57,200.3,265.64z"></path>
                </g>
              </svg>